Patient4_TMGait_0pt8_01_right_05_EMG.mot
version=1
nRows=17
nColumns=33
inDegrees=no
endheader
time	1LAddLong	2LGlutMax	3LGlutMed	4LIliopsoas	5LSemiMemb	6LBicFemLong	7LRecFem	8LVastMed	9LVastLat	10LGasMed	11LTibAnt	12lTibPost	13LPeroneusLong	14LSol	15LExtDigLong	16LFlexDigLong	17RAddLong	18RGlutMax	19RGlutMed	20RIliopsoas	21RSemiMemb	22RBicFemLong	23RRecFem	24RVastMed	25RVastLat	26RGasMed	27RTibAnt	28RTibPost	29RPeroneusLong	30RSol	31RExtDigLong	32RFlexDigLong
5.715	-0.01358	-0.25726	0.11429	-0.003052	0.028839	-0.023041	0.31128	0.008392	0.233	-0.044861	0.04837	0.006866	0.040131	0.15366	-0.16312	0.025177	0.010681	-0.32135	-0.89386	0.03067	-0.1561	-0.056915	-0.18982	-0.045013	-0.16556	0.022278	-0.20325	0.033417	1.4081	-0.18494	0.001068	0.010071
5.716	-0.016632	-0.31632	0.087433	0.002441	0.037537	-0.005035	0.30762	0.014648	0.2002	-0.037231	0.082397	-0.001831	-0.016785	0.15778	-0.17349	0.010681	0.024719	-0.25055	-0.39948	0.23041	-0.25772	-0.065155	-0.20157	-0.020294	-0.2829	0.016174	-0.20447	-0.00824	-0.45898	-0.068359	-0.001221	0.014191
5.717	-0.016632	-0.31403	0.10376	-0.002747	0.032501	-0.006561	0.32715	0.00946	0.1796	-0.009918	0.036469	0.002441	-0.074921	0.112	-0.20523	0.027924	0.019379	-0.10056	0.056915	0.28275	0.004883	0.08316	-0.10391	0.060883	-0.48569	0.050049	0.006866	-0.10895	-3.3498	0.10971	-0.003815	0.007172
5.718	-0.020447	-0.38315	0.080719	0.007935	0.030518	0.009613	0.29511	0.043488	0.17105	-0.001373	0.033722	0.003967	-0.098419	0.0354	-0.31281	0.030212	0.043488	-0.019531	0.6459	0.22247	0.45715	-0.074158	-0.035095	0.080109	-0.6871	0.061798	0.11337	-0.078125	-1.7093	-0.032806	-0.000153	-0.00412
5.719	-0.025482	-0.41428	0.057831	0.029602	0.037231	-0.005341	0.25665	0.030518	0.17273	0.010681	0.017548	0.007782	-0.081177	-0.041656	0.10284	0.0354	0.072784	-0.097809	0.28458	0.11231	0.36529	-0.22263	-0.17517	-0.062103	-0.63522	0.030823	0.046082	0.014038	-0.66681	0.25269	0.000458	-0.007935
5.72	-0.024109	-0.45776	0.072327	0.043945	0.034943	0.011139	0.24674	0.005798	0.15243	-0.009308	-0.004272	0.002747	-0.051575	-0.042267	-0.16708	0.039215	0.037384	-0.050049	0.52322	-0.047913	-0.034637	-0.14603	-0.37201	-0.085144	-0.39002	-0.010834	0.10712	-0.058441	0.58365	-0.081787	-0.002441	-0.022278
5.721	-0.022583	-0.48004	0.066528	0.021667	0.028687	-0.000916	0.24384	0.005188	0.15274	-0.023651	0.024414	-0.002441	-0.048218	0.015564	0.005035	0.014343	-0.003815	-0.095062	0.30151	-0.099335	-0.1593	-0.1738	-0.37567	-0.001221	-0.26398	-0.11765	0.21927	-0.22812	0.10635	-0.50873	0.001984	-0.014954
5.722	-0.015717	-0.42389	0.062714	-0.007935	0.026093	0.00061	0.11261	0.004272	0.12924	-0.023041	0.011139	0.004272	-0.046387	0.010986	-0.18372	0.012054	0.031433	-0.03891	0.006714	-0.14313	-0.19836	-0.22583	-0.49927	-0.030975	0.007172	-0.12695	0.084991	-0.2919	1.7673	-0.73898	-0.00061	-0.009308
5.723	-0.02121	-0.3656	0.028076	0.018768	0.017853	0.026855	0.061493	0.009155	0.11551	-0.015411	-0.01236	0.003815	-0.034027	0.050201	-0.13245	0.022278	0.057983	-0.002899	0.103	-0.14694	-0.19592	-0.30045	-0.51956	-0.17914	0.57693	-0.15488	-0.27222	0.13641	1.7305	-0.41992	-0.007172	0.001526
5.724	-0.023499	-0.31448	-0.02243	-0.002136	0.018921	0.020142	0.24185	-0.000153	0.12405	-0.020905	-0.01358	0.000763	-0.028381	0.059509	-0.056152	0.042267	0.10284	-0.054169	-0.070801	-0.033264	-0.10834	-0.42877	-0.36316	-0.2243	0.58716	-0.098724	-0.21805	-0.087585	-0.92163	-0.33844	-0.000916	-0.002136
5.725	-0.022125	-0.26337	-0.10056	-0.011902	0.031128	0.004425	0.45746	0.037231	0.11734	-0.00946	-0.011749	-0.002594	-0.037842	0.033875	-0.084991	0.029297	0.053101	-0.023499	-0.28275	-0.058441	-0.11261	-0.28748	-0.24994	-0.11444	0.30167	-0.006561	-0.17029	-0.3508	-0.52658	0.17944	0.000458	-0.016785
5.726	-0.018616	-0.20416	-0.18555	-0.013733	0.016937	0.018921	0.5719	0.022736	0.11017	-0.012512	-0.005035	0.006104	-0.04364	0.009155	-0.047607	0.024872	0.007935	0.079346	-0.43076	-0.000458	-0.014648	-0.029907	-0.23148	-0.11398	-0.11566	0.032806	-0.093536	0.14938	-0.070038	-0.038452	-0.001526	-0.017548
5.727	-0.02533	-0.16281	-0.24185	-0.000916	0.022583	0.02594	0.73486	0.015411	0.074921	-0.01709	0.03418	-0.006561	-0.04837	0.009308	-0.038147	0.036926	-0.048676	0.085754	-0.80368	0.049591	0.005951	0.14786	-0.14648	-0.29465	-0.3688	0.058441	0.001221	0.4599	0.23361	-0.26916	0.004425	-0.015259
5.728	-0.027924	-0.11795	-0.22949	0.030975	0.027313	0.025787	0.77896	0.016327	0.06424	-0.00885	0.069122	0.002441	-0.061035	0.002441	0.41855	0.026703	-0.040436	0.070801	-0.43076	0.016632	-0.1442	0.26428	0.13321	-0.34225	-0.51346	0.029449	-0.097656	0.32333	1.1293	0.015106	-0.001984	-0.011292
5.729	-0.032043	-0.089874	-0.25574	0.027618	0.020142	0.028687	0.63141	0.019989	0.051117	0.005951	0.15259	0.001068	-0.094757	0.063477	0.074158	0.023041	0.01236	0.11978	-0.2211	-0.031738	-0.24216	0.13336	0.48187	-0.28839	-0.55283	0.023499	-0.17853	0.13184	-0.27069	0.99808	-0.002594	-0.000916
5.73	-0.026855	-0.069122	-0.28153	0.002289	0.013275	0.027008	0.57953	0.022888	0.032654	0.003815	0.12451	0.000916	-0.085449	0.068817	0.20538	0.024719	0.067291	0.1384	-0.37338	-0.015259	-0.2536	0.23453	0.61737	-0.26321	-0.18784	0.010681	-0.14648	0.075378	-1.0976	1.1397	-0.002289	-0.005341
5.731	-0.023956	0.002594	-0.26504	-0.019684	0.023346	0.027924	0.52673	0.031891	0.016327	-0.001373	0.000458	0.000153	-0.041504	0.089417	-0.13611	0.014801	0.063477	0.24933	0.34668	-0.084076	-0.31708	0.2919	0.5986	-0.25436	0.048523	0.007629	0.032043	0.032043	1.1076	0.96466	-0.002747	-0.004883
